<?xml version="1.0" standalone="no"?>
<!DOCTYPE svg PUBLIC "-//W3C//DTD SVG 20010904//EN"
 "http://www.w3.org/TR/2001/REC-SVG-20010904/DTD/svg10.dtd">
<svg version="1.0" xmlns="http://www.w3.org/2000/svg"
 width="700.000000pt" height="700.000000pt" viewBox="0 0 700.000000 700.000000"
 preserveAspectRatio="xMidYMid meet">
<metadata>
Created by potrace 1.14, written by Peter Selinger 2001-2017
</metadata>
<g transform="translate(0.000000,700.000000) scale(0.100000,-0.100000)"
fill="#000000" stroke="none">
<path d="M2330 5237 c-49 -14 -1623 -1582 -1652 -1645 -24 -52 -25 -125 -4
-178 23 -54 1583 -1616 1641 -1642 175 -80 356 84 297 268 -13 39 -102 132
-721 753 l-706 707 706 708 c619 620 708 713 721 752 57 176 -101 332 -282
277z"/>
<path d="M4516 5235 c-72 -25 -132 -104 -140 -184 -2 -21 4 -63 14 -91 17 -49
67 -102 721 -756 l704 -704 -702 -702 c-385 -387 -709 -719 -718 -737 -25 -50
-24 -136 3 -187 39 -76 115 -124 196 -124 90 0 62 -26 909 819 551 551 804
809 818 838 27 55 27 130 0 185 -14 30 -257 279 -818 839 -691 689 -804 797
-839 807 -53 15 -100 14 -148 -3z"/>
</g>
</svg>
